<svg viewBox="0 0 512 512" xmlns="http://www.w3.org/2000/svg" role="img">
<title>LalaKirana app icon</title>
<desc>A rounded-square app icon: a mint-green scalloped shop awning above a cream storefront with two windows and a door, and a gold ledger tally mark in the corner.</desc>
<rect x="0" y="0" width="512" height="512" rx="100" fill="#163832"/>
<rect x="136" y="150" width="240" height="36" fill="#4ADE80"/>
<polygon points="136,186 184,186 160,222" fill="#4ADE80"/>
<polygon points="184,186 232,186 208,222" fill="#4ADE80"/>
<polygon points="232,186 280,186 256,222" fill="#4ADE80"/>
<polygon points="280,186 328,186 304,222" fill="#4ADE80"/>
<polygon points="328,186 376,186 352,222" fill="#4ADE80"/>
<rect x="160" y="222" width="192" height="150" rx="6" fill="#F6F1E4"/>
<rect x="184" y="246" width="36" height="36" rx="4" fill="#163832"/>
<rect x="292" y="246" width="36" height="36" rx="4" fill="#163832"/>
<rect x="232" y="292" width="48" height="80" rx="4" fill="#163832"/>
<g stroke="#D4A24C" stroke-width="7" stroke-linecap="round">
<line x1="330" y1="330" x2="330" y2="372"/>
<line x1="352" y1="330" x2="352" y2="372"/>
<line x1="374" y1="330" x2="374" y2="372"/>
<line x1="396" y1="330" x2="396" y2="372"/>
<line x1="322" y1="372" x2="404" y2="330"/>
</g>
</svg>